<?xml version="1.0" standalone="no"?>
<!DOCTYPE svg PUBLIC "-//W3C//DTD SVG 20010904//EN"
	"http://www.w3.org/TR/2001/REC-SVG-20010904/DTD/svg10.dtd">
<svg version="1.0" xmlns="http://www.w3.org/2000/svg"
     width="1024.000000pt" height="1024.000000pt" viewBox="0 0 1024.000000 1024.000000"
     preserveAspectRatio="xMidYMid meet">
	<metadata>
		Created by potrace 1.14, written by Peter Selinger 2001-2017
	</metadata>
	<g transform="translate(0.000000,1024.000000) scale(0.100000,-0.100000)"
	   fill="#000000" stroke="none">
		<path d="M8008 9694 c-809 -67 -1618 -422 -2415 -1058 l-128 -103 -59 -154
c-32 -85 -82 -215 -111 -289 -29 -74 -107 -280 -175 -457 -68 -178 -126 -323
-130 -323 -4 0 -10 51 -14 113 -22 378 -36 643 -36 715 l0 84 -37 -30 c-122
-96 -383 -368 -604 -627 -372 -436 -840 -1086 -1271 -1765 -278 -438 -699
-1140 -700 -1170 -1 -13 32 -126 142 -490 16 -52 99 -331 185 -620 86 -289
159 -531 161 -539 7 -21 25 2 49 59 41 99 228 477 325 661 553 1041 1244 2077
1880 2819 360 420 831 890 1485 1485 295 268 393 355 402 355 3 0 -104 -111
-238 -248 -870 -882 -1714 -1954 -2424 -3077 -274 -433 -365 -593 -484 -848
-364 -781 -708 -1582 -933 -2175 -77 -204 -204 -576 -214 -627 -5 -28 22 -88
196 -434 120 -240 206 -401 213 -398 6 2 16 23 20 48 5 24 38 170 73 324 36
154 79 339 95 410 89 388 109 460 163 579 39 84 101 165 149 195 18 11 103 47
188 79 85 33 316 121 514 196 198 76 484 185 635 243 151 57 280 110 287 116
13 13 610 1337 619 1375 l6 22 -198 -1 c-110 0 -381 -4 -604 -8 -223 -5 -407
-7 -408 -6 -5 5 213 149 388 257 351 216 778 438 1015 527 61 23 120 46 132
51 55 23 617 829 950 1365 361 578 602 1013 1208 2170 290 554 415 791 521
988 35 65 64 122 64 127 0 22 -229 67 -437 85 -195 17 -233 17 -445 -1z"/>
		<path d="M2780 9259 c-118 -10 -320 -53 -431 -90 -640 -214 -1137 -743 -1308
-1390 -33 -124 -61 -275 -61 -326 0 -18 -4 -33 -10 -33 -7 0 -10 -790 -10
-2350 0 -1560 3 -2350 10 -2350 6 0 10 -16 10 -34 0 -48 36 -229 66 -334 36
-128 70 -213 136 -347 231 -467 649 -838 1130 -1003 134 -46 296 -87 306 -78
3 4 -39 99 -96 211 l-102 203 30 101 c35 118 35 120 13 128 -66 22 -202 93
-282 147 -322 214 -542 553 -618 949 -17 87 -18 230 -18 2422 0 2195 1 2335
18 2425 108 570 544 1022 1112 1151 l100 23 1215 5 1215 6 303 222 c166 122
302 216 302 209 0 -8 -7 -19 -15 -26 -8 -7 -15 -18 -15 -25 0 -13 282 169 288
186 4 11 -3165 10 -3288 -2z"/>
		<path d="M8628 8628 c-19 -35 -84 -154 -143 -266 l-108 -203 32 -42 c92 -124
183 -305 227 -456 62 -210 57 -26 61 -2466 3 -1500 1 -2276 -6 -2370 -28 -366
-164 -673 -411 -925 -211 -215 -449 -341 -770 -408 -66 -14 -309 -16 -2035
-21 l-1960 -6 -21 -95 c-12 -52 -40 -175 -63 -272 -22 -97 -41 -184 -41 -192
0 -15 184 -16 2000 -16 1336 0 2033 4 2098 11 801 87 1494 681 1707 1463 31
113 65 301 65 357 0 22 5 39 10 39 7 0 10 773 10 2300 0 1527 -3 2300 -10
2300 -5 0 -10 21 -10 46 0 122 -60 393 -124 560 -47 124 -132 291 -203 399
-60 91 -186 247 -240 298 l-31 28 -34 -63z"/>
	</g>
</svg>
